<svg version="1.1" xmlns="http://www.w3.org/2000/svg" xmlns:xlink="http://www.w3.org/1999/xlink" width="32.64017" height="382.64006" viewBox="0,0,32.64017,382.64006"><defs><linearGradient x1="240.00004" y1="338.67998" x2="240.00004" y2="371.32003" gradientUnits="userSpaceOnUse" id="color-1"><stop offset="0" stop-color="#ffecad"/><stop offset="1" stop-color="#ffcd57"/></linearGradient><linearGradient x1="240.00004" y1="343.48803" x2="240.00004" y2="366.51197" gradientUnits="userSpaceOnUse" id="color-2"><stop offset="0" stop-color="#ffe078"/><stop offset="1" stop-color="#faaf00"/></linearGradient><linearGradient x1="240.00004" y1="338.67997" x2="240.00004" y2="349.66487" gradientUnits="userSpaceOnUse" id="color-3"><stop offset="0" stop-color="#ffffff"/><stop offset="1" stop-color="#ffffff" stop-opacity="0"/></linearGradient><linearGradient x1="240.00004" y1="303.67998" x2="240.00004" y2="336.32003" gradientUnits="userSpaceOnUse" id="color-4"><stop offset="0" stop-color="#fff0ad"/><stop offset="1" stop-color="#ffd457"/></linearGradient><linearGradient x1="240.00004" y1="308.48803" x2="240.00004" y2="331.51197" gradientUnits="userSpaceOnUse" id="color-5"><stop offset="0" stop-color="#ffe677"/><stop offset="1" stop-color="#f9bb00"/></linearGradient><linearGradient x1="240.00004" y1="303.67997" x2="240.00004" y2="314.66487" gradientUnits="userSpaceOnUse" id="color-6"><stop offset="0" stop-color="#ffffff"/><stop offset="1" stop-color="#ffffff" stop-opacity="0"/></linearGradient><linearGradient x1="240" y1="268.67997" x2="240" y2="301.32003" gradientUnits="userSpaceOnUse" id="color-7"><stop offset="0" stop-color="#8eff95"/><stop offset="1" stop-color="#5bdc64"/></linearGradient><linearGradient x1="240" y1="273.48803" x2="240" y2="296.51197" gradientUnits="userSpaceOnUse" id="color-8"><stop offset="0" stop-color="#67e96f"/><stop offset="1" stop-color="#47ca4f"/></linearGradient><linearGradient x1="240" y1="268.67997" x2="240" y2="279.66487" gradientUnits="userSpaceOnUse" id="color-9"><stop offset="0" stop-color="#ffffff"/><stop offset="1" stop-color="#ffffff" stop-opacity="0"/></linearGradient><linearGradient x1="239.99999" y1="233.67997" x2="239.99999" y2="266.32003" gradientUnits="userSpaceOnUse" id="color-10"><stop offset="0" stop-color="#8fffcd"/><stop offset="1" stop-color="#5adba1"/></linearGradient><linearGradient x1="239.99999" y1="238.48803" x2="239.99999" y2="261.51197" gradientUnits="userSpaceOnUse" id="color-11"><stop offset="0" stop-color="#66e8ae"/><stop offset="1" stop-color="#47c98f"/></linearGradient><linearGradient x1="239.99999" y1="233.67997" x2="239.99999" y2="244.66487" gradientUnits="userSpaceOnUse" id="color-12"><stop offset="0" stop-color="#ffffff"/><stop offset="1" stop-color="#ffffff" stop-opacity="0"/></linearGradient><linearGradient x1="239.99999" y1="198.67997" x2="239.99999" y2="231.32003" gradientUnits="userSpaceOnUse" id="color-13"><stop offset="0" stop-color="#9be8ff"/><stop offset="1" stop-color="#4fbce6"/></linearGradient><linearGradient x1="239.99999" y1="203.48803" x2="239.99999" y2="226.51197" gradientUnits="userSpaceOnUse" id="color-14"><stop offset="0" stop-color="#5ccbf6"/><stop offset="1" stop-color="#3eb1de"/></linearGradient><linearGradient x1="239.99999" y1="198.67997" x2="239.99999" y2="209.66487" gradientUnits="userSpaceOnUse" id="color-15"><stop offset="0" stop-color="#ffffff"/><stop offset="1" stop-color="#ffffff" stop-opacity="0"/></linearGradient><linearGradient x1="239.99999" y1="163.67997" x2="239.99999" y2="196.32003" gradientUnits="userSpaceOnUse" id="color-16"><stop offset="0" stop-color="#9ccbff"/><stop offset="1" stop-color="#4e96e6"/></linearGradient><linearGradient x1="239.99999" y1="168.48803" x2="239.99999" y2="191.51197" gradientUnits="userSpaceOnUse" id="color-17"><stop offset="0" stop-color="#5ba4f5"/><stop offset="1" stop-color="#3e8ade"/></linearGradient><linearGradient x1="239.99999" y1="163.67997" x2="239.99999" y2="174.66487" gradientUnits="userSpaceOnUse" id="color-18"><stop offset="0" stop-color="#ffffff"/><stop offset="1" stop-color="#ffffff" stop-opacity="0"/></linearGradient><linearGradient x1="239.99998" y1="128.67997" x2="239.99998" y2="161.32003" gradientUnits="userSpaceOnUse" id="color-19"><stop offset="0" stop-color="#d1c6ff"/><stop offset="1" stop-color="#8f74ff"/></linearGradient><linearGradient x1="239.99998" y1="133.48803" x2="239.99998" y2="156.51197" gradientUnits="userSpaceOnUse" id="color-20"><stop offset="0" stop-color="#a088ff"/><stop offset="1" stop-color="#8468f5"/></linearGradient><linearGradient x1="239.99998" y1="128.67997" x2="239.99998" y2="139.66487" gradientUnits="userSpaceOnUse" id="color-21"><stop offset="0" stop-color="#ffffff"/><stop offset="1" stop-color="#ffffff" stop-opacity="0"/></linearGradient><linearGradient x1="239.99997" y1="93.67997" x2="239.99997" y2="126.32003" gradientUnits="userSpaceOnUse" id="color-22"><stop offset="0" stop-color="#ffbdf2"/><stop offset="1" stop-color="#f27edb"/></linearGradient><linearGradient x1="239.99991" y1="98.48803" x2="239.99991" y2="121.51197" gradientUnits="userSpaceOnUse" id="color-23"><stop offset="0" stop-color="#ff94ea"/><stop offset="1" stop-color="#e162c8"/></linearGradient><linearGradient x1="239.99997" y1="93.67997" x2="239.99997" y2="104.66487" gradientUnits="userSpaceOnUse" id="color-24"><stop offset="0" stop-color="#ffffff"/><stop offset="1" stop-color="#ffffff" stop-opacity="0"/></linearGradient><linearGradient x1="239.99997" y1="58.67997" x2="239.99997" y2="91.32003" gradientUnits="userSpaceOnUse" id="color-25"><stop offset="0" stop-color="#ffc4c8"/><stop offset="1" stop-color="#ff7982"/></linearGradient><linearGradient x1="239.99997" y1="63.48803" x2="239.99997" y2="86.51197" gradientUnits="userSpaceOnUse" id="color-26"><stop offset="0" stop-color="#ff9ca1"/><stop offset="1" stop-color="#ff535e"/></linearGradient><linearGradient x1="239.99997" y1="58.67997" x2="239.99997" y2="69.66487" gradientUnits="userSpaceOnUse" id="color-27"><stop offset="0" stop-color="#ffffff"/><stop offset="1" stop-color="#ffffff" stop-opacity="0"/></linearGradient></defs><g transform="translate(-223.67992,11.32003)"><g stroke-miterlimit="10"><path d="M223.68004,355c0,-9.0133 7.30672,-16.32003 16.32003,-16.32003c9.0133,0 16.32002,7.30672 16.32002,16.32003c0,9.0133 -7.30672,16.32003 -16.32002,16.32003c-9.0133,0 -16.32003,-7.30672 -16.32003,-16.32003z" fill="url(#color-1)" stroke="none" stroke-width="0" stroke-linecap="butt" stroke-linejoin="miter"/><path d="M228.48807,355c0,-6.35788 5.15409,-11.51197 11.51197,-11.51197c6.35788,0 11.51197,5.15409 11.51197,11.51197c0,6.35788 -5.15408,11.51197 -11.51197,11.51197c-6.35788,0 -11.51197,-5.15409 -11.51197,-11.51197z" fill="url(#color-2)" stroke="none" stroke-width="0" stroke-linecap="butt" stroke-linejoin="miter"/><path d="M223.68004,355c0,-9.0133 7.30672,-16.32003 16.32003,-16.32003c9.0133,0 16.32002,7.30672 16.32002,16.32003c0,0.57443 -0.02968,1.14193 -0.08758,1.70105c-0.26125,-0.29241 -31.32023,-0.9598 -32.54153,-1.09802c-0.00726,-0.20011 -0.01094,-0.40114 -0.01094,-0.60304z" fill="url(#color-3)" stroke="none" stroke-width="0" stroke-linecap="butt" stroke-linejoin="miter"/><path d="M240,350.8125v8.375" fill="none" stroke="#d88c00" stroke-width="4" stroke-linecap="round" stroke-linejoin="miter"/><path d="M223.68004,320c0,-9.0133 7.30672,-16.32003 16.32003,-16.32003c9.0133,0 16.32002,7.30672 16.32002,16.32003c0,9.0133 -7.30672,16.32003 -16.32002,16.32003c-9.0133,0 -16.32003,-7.30672 -16.32003,-16.32003z" fill="url(#color-4)" stroke="none" stroke-width="0" stroke-linecap="butt" stroke-linejoin="miter"/><path d="M228.48807,320c0,-6.35788 5.15409,-11.51197 11.51197,-11.51197c6.35788,0 11.51197,5.15409 11.51197,11.51197c0,6.35788 -5.15408,11.51197 -11.51197,11.51197c-6.35788,0 -11.51197,-5.15409 -11.51197,-11.51197z" fill="url(#color-5)" stroke="none" stroke-width="0" stroke-linecap="butt" stroke-linejoin="miter"/><path d="M223.68001,320c0,-9.0133 7.30672,-16.32003 16.32003,-16.32003c9.0133,0 16.32002,7.30672 16.32002,16.32003c0,0.57443 -0.02968,1.14193 -0.08758,1.70105c-0.26125,-0.29241 -31.32023,-0.9598 -32.54153,-1.09802c-0.00726,-0.20011 -0.01094,-0.40114 -0.01094,-0.60304z" fill="url(#color-6)" stroke="none" stroke-width="0" stroke-linecap="butt" stroke-linejoin="miter"/><path d="M234.80469,323.82883l5.26299,-8.85765l5.12773,8.85765z" fill="#c59400" stroke="none" stroke-width="0" stroke-linecap="butt" stroke-linejoin="miter"/><path d="M223.67998,285c0,-9.0133 7.30672,-16.32003 16.32003,-16.32003c9.0133,0 16.32002,7.30672 16.32002,16.32003c0,9.0133 -7.30672,16.32003 -16.32002,16.32003c-9.0133,0 -16.32003,-7.30672 -16.32003,-16.32003z" fill="url(#color-7)" stroke="none" stroke-width="0" stroke-linecap="butt" stroke-linejoin="miter"/><path d="M228.488,285c0,-6.35788 5.15409,-11.51197 11.51197,-11.51197c6.35788,0 11.51197,5.15409 11.51197,11.51197c0,6.35788 -5.15408,11.51197 -11.51197,11.51197c-6.35788,0 -11.51197,-5.15409 -11.51197,-11.51197z" fill="url(#color-8)" stroke="none" stroke-width="0" stroke-linecap="butt" stroke-linejoin="miter"/><path d="M223.67998,285c0,-9.0133 7.30672,-16.32003 16.32003,-16.32003c9.0133,0 16.32002,7.30672 16.32002,16.32003c0,0.57443 -0.02968,1.14193 -0.08758,1.70105c-0.26125,-0.29241 -31.32023,-0.9598 -32.54153,-1.09802c-0.00726,-0.20011 -0.01094,-0.40114 -0.01094,-0.60304z" fill="url(#color-9)" stroke="none" stroke-width="0" stroke-linecap="butt" stroke-linejoin="miter"/><path d="M235.24462,285.16431c0,-1.38123 1.11971,-2.50094 2.50094,-2.50094c1.38123,0 2.50094,1.11971 2.50094,2.50094c0,1.38123 -1.11971,2.50094 -2.50094,2.50094c-1.38123,0 -2.50094,-1.11971 -2.50094,-2.50094z" fill="#178d1f" stroke="none" stroke-width="0" stroke-linecap="butt" stroke-linejoin="miter"/><path d="M239.7535,285.16431c0,-1.38123 1.11971,-2.50094 2.50094,-2.50094c1.38123,0 2.50094,1.11971 2.50094,2.50094c0,1.38123 -1.11971,2.50094 -2.50094,2.50094c-1.38123,0 -2.50094,-1.11971 -2.50094,-2.50094z" fill="#178d1f" stroke="none" stroke-width="0" stroke-linecap="butt" stroke-linejoin="miter"/><path d="M237.52911,281.43219c0,-1.38123 1.11971,-2.50094 2.50094,-2.50094c1.38123,0 2.50094,1.11971 2.50094,2.50094c0,1.38123 -1.11971,2.50094 -2.50094,2.50094c-1.38123,0 -2.50094,-1.11971 -2.50094,-2.50094z" fill="#178d1f" stroke="none" stroke-width="0" stroke-linecap="butt" stroke-linejoin="miter"/><path d="M240,286.27651c0,0 0.83296,2.8512 -1.59166,3.91724" fill="none" stroke="#178d1f" stroke-width="1.5" stroke-linecap="round" stroke-linejoin="miter"/><path d="M223.67997,250c0,-9.0133 7.30672,-16.32003 16.32003,-16.32003c9.0133,0 16.32002,7.30672 16.32002,16.32003c0,9.0133 -7.30672,16.32003 -16.32002,16.32003c-9.0133,0 -16.32003,-7.30672 -16.32003,-16.32003z" fill="url(#color-10)" stroke="none" stroke-width="0" stroke-linecap="butt" stroke-linejoin="miter"/><path d="M228.48799,250c0,-6.35788 5.15409,-11.51197 11.51197,-11.51197c6.35788,0 11.51197,5.15409 11.51197,11.51197c0,6.35788 -5.15408,11.51197 -11.51197,11.51197c-6.35788,0 -11.51197,-5.15409 -11.51197,-11.51197z" fill="url(#color-11)" stroke="none" stroke-width="0" stroke-linecap="butt" stroke-linejoin="miter"/><path d="M223.67997,250c0,-9.0133 7.30672,-16.32003 16.32003,-16.32003c9.0133,0 16.32002,7.30672 16.32002,16.32003c0,0.57443 -0.02968,1.14193 -0.08758,1.70105c-0.26125,-0.29241 -31.32023,-0.9598 -32.54153,-1.09802c-0.00726,-0.20011 -0.01094,-0.40114 -0.01094,-0.60304z" fill="url(#color-12)" stroke="none" stroke-width="0" stroke-linecap="butt" stroke-linejoin="miter"/><path d="M234.79997,250c0,-2.87188 2.32812,-5.2 5.2,-5.2c2.87188,0 5.2,2.32812 5.2,5.2c0,2.87188 -2.32812,5.2 -5.2,5.2c-2.87188,0 -5.2,-2.32812 -5.2,-5.2z" fill="#209e65" stroke="none" stroke-width="0" stroke-linecap="butt" stroke-linejoin="miter"/><path d="M223.67997,215c0,-9.0133 7.30672,-16.32003 16.32003,-16.32003c9.0133,0 16.32002,7.30672 16.32002,16.32003c0,9.0133 -7.30672,16.32003 -16.32002,16.32003c-9.0133,0 -16.32003,-7.30672 -16.32003,-16.32003z" fill="url(#color-13)" stroke="none" stroke-width="0" stroke-linecap="butt" stroke-linejoin="miter"/><path d="M228.48799,215c0,-6.35788 5.15409,-11.51197 11.51197,-11.51197c6.35788,0 11.51197,5.15409 11.51197,11.51197c0,6.35788 -5.15408,11.51197 -11.51197,11.51197c-6.35788,0 -11.51197,-5.15409 -11.51197,-11.51197z" fill="url(#color-14)" stroke="none" stroke-width="0" stroke-linecap="butt" stroke-linejoin="miter"/><path d="M223.67997,215c0,-9.0133 7.30672,-16.32003 16.32003,-16.32003c9.0133,0 16.32002,7.30672 16.32002,16.32003c0,0.57443 -0.02968,1.14193 -0.08758,1.70105c-0.26125,-0.29241 -31.32023,-0.9598 -32.54153,-1.09802c-0.00726,-0.20011 -0.01094,-0.40114 -0.01094,-0.60304z" fill="url(#color-15)" stroke="none" stroke-width="0" stroke-linecap="butt" stroke-linejoin="miter"/><path d="M234.06025,215l5.9397,-5.9397l5.9397,5.9397l-5.9397,5.9397z" fill="#1181ad" stroke="none" stroke-width="0" stroke-linecap="butt" stroke-linejoin="miter"/><path d="M223.67997,180c0,-9.0133 7.30672,-16.32003 16.32003,-16.32003c9.0133,0 16.32002,7.30672 16.32002,16.32003c0,9.0133 -7.30672,16.32003 -16.32002,16.32003c-9.0133,0 -16.32003,-7.30672 -16.32003,-16.32003z" fill="url(#color-16)" stroke="none" stroke-width="0" stroke-linecap="butt" stroke-linejoin="miter"/><path d="M228.48799,180c0,-6.35788 5.15409,-11.51197 11.51197,-11.51197c6.35788,0 11.51197,5.15409 11.51197,11.51197c0,6.35788 -5.15408,11.51197 -11.51197,11.51197c-6.35788,0 -11.51197,-5.15409 -11.51197,-11.51197z" fill="url(#color-17)" stroke="none" stroke-width="0" stroke-linecap="butt" stroke-linejoin="miter"/><path d="M223.67997,180c0,-9.0133 7.30672,-16.32003 16.32003,-16.32003c9.0133,0 16.32002,7.30672 16.32002,16.32003c0,0.57443 -0.02968,1.14193 -0.08758,1.70105c-0.26125,-0.29241 -31.32023,-0.9598 -32.54153,-1.09802c-0.00726,-0.20011 -0.01094,-0.40114 -0.01094,-0.60304z" fill="url(#color-18)" stroke="none" stroke-width="0" stroke-linecap="butt" stroke-linejoin="miter"/><path d="M234.78543,178.4655c0,0 1.74658,-0.6332 2.32117,-1.29255c0.57459,-0.65934 1.12636,-2.66353 1.12636,-2.66353c0,0 0.56618,2.02072 1.14361,2.68333c0.57169,0.65601 2.30392,1.27276 2.30392,1.27276c0,0 -1.74655,0.63316 -2.32114,1.2925c-0.57459,0.65935 -1.12639,2.66358 -1.12639,2.66358c0,0 -0.55177,-2.00419 -1.12636,-2.66353c-0.57459,-0.65935 -2.32117,-1.29255 -2.32117,-1.29255z" fill="#014fa9" stroke="none" stroke-width="0" stroke-linecap="butt" stroke-linejoin="miter"/><path d="M240.16009,180.9174c0,0 1.28032,-0.4045 1.70153,-0.82569c0.4212,-0.4212 0.82567,-1.7015 0.82567,-1.7015c0,0 0.41503,1.29086 0.83832,1.71414c0.41907,0.41907 1.68887,0.81305 1.68887,0.81305c0,0 -1.28029,0.40447 -1.70149,0.82567c-0.4212,0.4212 -0.82569,1.70153 -0.82569,1.70153c0,0 -0.40447,-1.2803 -0.82567,-1.7015c-0.4212,-0.4212 -1.70153,-0.82569 -1.70153,-0.82569z" fill="#014fa9" stroke="none" stroke-width="0" stroke-linecap="butt" stroke-linejoin="miter"/><path d="M237.92809,183.6144c0,0 0.95052,-0.3003 1.26321,-0.61299c0.31269,-0.31269 0.61298,-1.26319 0.61298,-1.26319c0,0 0.30812,0.95834 0.62237,1.27258c0.31111,0.31111 1.25383,0.60361 1.25383,0.60361c0,0 -0.9505,0.30028 -1.26319,0.61298c-0.3127,0.3127 -0.613,1.26321 -0.613,1.26321c0,0 -0.30028,-0.9505 -0.61298,-1.26319c-0.3127,-0.3127 -1.26321,-0.61299 -1.26321,-0.61299z" fill="#014fa9" stroke="none" stroke-width="0" stroke-linecap="butt" stroke-linejoin="miter"/><path d="M223.67996,145c0,-9.0133 7.30672,-16.32003 16.32003,-16.32003c9.0133,0 16.32002,7.30672 16.32002,16.32003c0,9.0133 -7.30672,16.32003 -16.32002,16.32003c-9.0133,0 -16.32003,-7.30672 -16.32003,-16.32003z" fill="url(#color-19)" stroke="none" stroke-width="0" stroke-linecap="butt" stroke-linejoin="miter"/><path d="M228.48798,145c0,-6.35788 5.15409,-11.51197 11.51197,-11.51197c6.35788,0 11.51197,5.15409 11.51197,11.51197c0,6.35788 -5.15408,11.51197 -11.51197,11.51197c-6.35788,0 -11.51197,-5.15409 -11.51197,-11.51197z" fill="url(#color-20)" stroke="none" stroke-width="0" stroke-linecap="butt" stroke-linejoin="miter"/><path d="M223.67996,145c0,-9.0133 7.30672,-16.32003 16.32003,-16.32003c9.0133,0 16.32002,7.30672 16.32002,16.32003c0,0.57443 -0.02968,1.14193 -0.08758,1.70105c-0.26125,-0.29241 -31.32023,-0.9598 -32.54153,-1.09802c-0.00726,-0.20011 -0.01094,-0.40114 -0.01094,-0.60304z" fill="url(#color-21)" stroke="none" stroke-width="0" stroke-linecap="butt" stroke-linejoin="miter"/><path d="M235.75303,146.03251c-0.66928,-2.57936 0.87914,-5.2129 3.45849,-5.88218c0.70985,-0.18419 1.42379,-0.20042 2.09977,-0.07343c-1.48507,1.0909 -2.23556,3.01368 -1.74452,4.90611c0.50369,1.94119 2.16441,3.27511 4.05159,3.45463c-0.55102,0.48752 -1.22223,0.85591 -1.98316,1.05335c-2.57936,0.66928 -5.2129,-0.87914 -5.88218,-3.45849z" fill="#4223bb" stroke="none" stroke-width="0" stroke-linecap="butt" stroke-linejoin="miter"/><path d="M223.67995,110c0,-9.0133 7.30672,-16.32003 16.32003,-16.32003c9.0133,0 16.32002,7.30672 16.32002,16.32003c0,9.0133 -7.30672,16.32003 -16.32002,16.32003c-9.0133,0 -16.32003,-7.30672 -16.32003,-16.32003z" fill="url(#color-22)" stroke="none" stroke-width="0" stroke-linecap="butt" stroke-linejoin="miter"/><path d="M228.48797,110c0,-6.35788 5.15409,-11.51197 11.51197,-11.51197c6.35788,0 11.51197,5.15409 11.51197,11.51197c0,6.35788 -5.15408,11.51197 -11.51197,11.51197c-6.35788,0 -11.51197,-5.15409 -11.51197,-11.51197z" fill="url(#color-23)" stroke="none" stroke-width="0" stroke-linecap="butt" stroke-linejoin="miter"/><path d="M223.67995,110c0,-9.0133 7.30672,-16.32003 16.32003,-16.32003c9.0133,0 16.32002,7.30672 16.32002,16.32003c0,0.57443 -0.02968,1.14193 -0.08758,1.70105c-0.26125,-0.29241 -31.32023,-0.9598 -32.54153,-1.09802c-0.00726,-0.20011 -0.01094,-0.40114 -0.01094,-0.60304z" fill="url(#color-24)" stroke="none" stroke-width="0" stroke-linecap="butt" stroke-linejoin="miter"/><path d="M237.53527,109.92215c0,-1.37122 1.1116,-2.48282 2.48282,-2.48282c1.37122,0 2.48282,1.1116 2.48282,2.48282c0,1.37122 -1.1116,2.48282 -2.48282,2.48282c-1.37122,0 -2.48282,-1.1116 -2.48282,-2.48282z" fill="none" stroke="#ad2091" stroke-width="1.5" stroke-linecap="butt" stroke-linejoin="miter"/><path d="M237.69375,106.26566c0,-1.28369 1.04064,-2.32434 2.32433,-2.32434c1.28369,0 2.32433,1.04064 2.32433,2.32434c0,1.28369 -0.60055,1.49223 -2.32433,1.3946c-1.78013,-0.10082 -2.32433,-0.1109 -2.32433,-1.3946z" fill="#ad2091" stroke="none" stroke-width="0" stroke-linecap="butt" stroke-linejoin="miter"/><path d="M242.7333,106.70098c1.20093,-0.45347 2.5421,0.15244 2.99557,1.35337c0.45347,1.20093 -0.15245,2.5421 -1.35338,2.99558c-1.20093,0.45347 -1.60817,-0.03469 -2.12578,-1.68182c-0.53452,-1.70097 -0.71735,-2.21365 0.48358,-2.66712z" fill="#ad2091" stroke="none" stroke-width="0" stroke-linecap="butt" stroke-linejoin="miter"/><path d="M237.9641,109.3681c-0.51761,1.64712 -0.92486,2.13529 -2.12579,1.68182c-1.20093,-0.45347 -1.80684,-1.79465 -1.35337,-2.99558c0.45347,-1.20093 1.79464,-1.80685 2.99557,-1.35337c1.20093,0.45347 1.01811,0.96617 0.48359,2.66713z" fill="#ad2091" stroke="none" stroke-width="0" stroke-linecap="butt" stroke-linejoin="miter"/><path d="M238.96553,111.78051c1.34682,1.08029 1.65383,1.63698 0.79528,2.59133c-0.85854,0.95435 -2.32818,1.03202 -3.28253,0.17347c-0.95435,-0.85854 -1.03202,-2.32818 -0.17347,-3.28253c0.85854,-0.95435 1.26987,-0.59788 2.66072,0.51773z" fill="#ad2091" stroke="none" stroke-width="0" stroke-linecap="butt" stroke-linejoin="miter"/><path d="M243.97697,111.26278c0.85854,0.95435 0.78088,2.42399 -0.17347,3.28253c-0.95435,0.85854 -2.42399,0.78088 -3.28254,-0.17347c-0.85854,-0.95435 -0.55153,-1.51104 0.79528,-2.59133c1.39085,-1.1156 1.80217,-1.47207 2.66071,-0.51773z" fill="#ad2091" stroke="none" stroke-width="0" stroke-linecap="butt" stroke-linejoin="miter"/><path d="M223.67995,75c0,-9.0133 7.30672,-16.32003 16.32003,-16.32003c9.0133,0 16.32002,7.30672 16.32002,16.32003c0,9.0133 -7.30672,16.32003 -16.32002,16.32003c-9.0133,0 -16.32003,-7.30672 -16.32003,-16.32003z" fill="url(#color-25)" stroke="none" stroke-width="0" stroke-linecap="butt" stroke-linejoin="miter"/><path d="M228.48799,75c0,-6.35788 5.15409,-11.51197 11.51197,-11.51197c6.35788,0 11.51197,5.15409 11.51197,11.51197c0,6.35788 -5.15408,11.51197 -11.51197,11.51197c-6.35788,0 -11.51197,-5.15409 -11.51197,-11.51197z" fill="url(#color-26)" stroke="none" stroke-width="0" stroke-linecap="butt" stroke-linejoin="miter"/><path d="M223.67994,75c0,-9.0133 7.30672,-16.32003 16.32003,-16.32003c9.0133,0 16.32002,7.30672 16.32002,16.32003c0,0.57443 -0.02968,1.14193 -0.08758,1.70105c-0.26125,-0.29241 -31.32023,-0.9598 -32.54153,-1.09802c-0.00726,-0.20011 -0.01094,-0.40114 -0.01094,-0.60304z" fill="url(#color-27)" stroke="none" stroke-width="0" stroke-linecap="butt" stroke-linejoin="miter"/><path d="M239.99972,72.0015c0.43894,-0.99809 1.38627,-1.6918 2.48694,-1.6918c1.51742,0 2.77584,1.31478 2.74895,2.93427c0.03653,2.01434 -5.23589,6.69632 -5.23589,6.69632c0,0 -5.23587,-4.63627 -5.23587,-6.69632c0,-1.61972 1.23153,-2.93427 2.74895,-2.93427c1.10068,0 2.04802,0.6937 2.48693,1.6918z" fill="#c11c27" stroke="#ff99e5" stroke-width="0" stroke-linecap="butt" stroke-linejoin="round"/><path d="M223.67992,40c0,-9.0133 7.30672,-16.32003 16.32003,-16.32003c9.0133,0 16.32002,7.30672 16.32002,16.32003c0,9.0133 -7.30672,16.32003 -16.32002,16.32003c-9.0133,0 -16.32003,-7.30672 -16.32003,-16.32003z" fill-opacity="0.38431" fill="#000000" stroke="none" stroke-width="0" stroke-linecap="butt" stroke-linejoin="miter"/><path d="M223.67992,5c0,-9.0133 7.30672,-16.32003 16.32003,-16.32003c9.0133,0 16.32002,7.30672 16.32002,16.32003c0,9.0133 -7.30672,16.32003 -16.32002,16.32003c-9.0133,0 -16.32003,-7.30672 -16.32003,-16.32003z" fill-opacity="0.38431" fill="#000000" stroke="none" stroke-width="0" stroke-linecap="butt" stroke-linejoin="miter"/></g></g></svg>