<svg viewBox="0,0,57.26667,57.26668" height="57.26668" width="57.26667" xmlns:xlink="http://www.w3.org/1999/xlink" xmlns="http://www.w3.org/2000/svg" version="1.1"><defs><radialGradient id="color-1" gradientUnits="userSpaceOnUse" r="28.63333" cy="180" cx="240.00006"><stop stop-color="#ffc1f3" offset="0"></stop><stop stop-opacity="0" stop-color="#ffc1f3" offset="1"></stop></radialGradient><linearGradient id="color-2" gradientUnits="userSpaceOnUse" y2="196.32003" x2="240.00006" y1="163.67997" x1="240.00006"><stop stop-color="#ffbdf2" offset="0"></stop><stop stop-color="#f27edb" offset="1"></stop></linearGradient><linearGradient id="color-3" gradientUnits="userSpaceOnUse" y2="191.51197" x2="240.00002" y1="168.48803" x1="240.00002"><stop stop-color="#ff94ea" offset="0"></stop><stop stop-color="#e162c8" offset="1"></stop></linearGradient><linearGradient id="color-4" gradientUnits="userSpaceOnUse" y2="174.66487" x2="240.00006" y1="163.67997" x1="240.00006"><stop stop-color="#ffffff" offset="0"></stop><stop stop-opacity="0" stop-color="#ffffff" offset="1"></stop></linearGradient></defs><g transform="translate(-211.36672,-151.36666)"><g style="mix-blend-mode: normal" stroke-dashoffset="0" stroke-dasharray="" stroke-miterlimit="10" stroke-linejoin="miter" stroke-linecap="butt" fill-rule="nonzero" data-paper-data="{&quot;isPaintingLayer&quot;:true}"><path stroke-width="0" stroke="none" fill="url(#color-1)" d="M211.36673,180c0,-15.81376 12.81958,-28.63334 28.63334,-28.63334c15.81375,0 28.63333,12.81958 28.63333,28.63334c0,15.81376 -12.81958,28.63334 -28.63333,28.63334c-15.81376,0 -28.63334,-12.81958 -28.63334,-28.63334z"></path><path stroke-width="0" stroke="none" fill="url(#color-2)" d="M223.68004,180c0,-9.0133 7.30672,-16.32003 16.32003,-16.32003c9.0133,0 16.32002,7.30672 16.32002,16.32003c0,9.0133 -7.30672,16.32003 -16.32002,16.32003c-9.0133,0 -16.32003,-7.30672 -16.32003,-16.32003z"></path><path stroke-width="0" stroke="none" fill="url(#color-3)" d="M228.48806,180c0,-6.35788 5.15409,-11.51197 11.51197,-11.51197c6.35788,0 11.51197,5.15409 11.51197,11.51197c0,6.35788 -5.15408,11.51197 -11.51197,11.51197c-6.35788,0 -11.51197,-5.15409 -11.51197,-11.51197z"></path><path stroke-width="0" stroke="none" fill="url(#color-4)" d="M223.68004,180c0,-9.0133 7.30672,-16.32003 16.32003,-16.32003c9.0133,0 16.32002,7.30672 16.32002,16.32003c0,0.57443 -0.02968,1.14193 -0.08758,1.70105c-0.26125,-0.29241 -31.32023,-0.9598 -32.54153,-1.09802c-0.00726,-0.20011 -0.01094,-0.40114 -0.01094,-0.60304z"></path><path stroke-width="1.5" stroke="#d648ba" fill="none" d="M237.53536,179.92215c0,-1.37122 1.1116,-2.48282 2.48282,-2.48282c1.37122,0 2.48282,1.1116 2.48282,2.48282c0,1.37122 -1.1116,2.48282 -2.48282,2.48282c-1.37122,0 -2.48282,-1.1116 -2.48282,-2.48282z"></path><path stroke-width="0" stroke="none" fill="#d648ba" d="M237.69384,176.26566c0,-1.28369 1.04064,-2.32434 2.32433,-2.32434c1.28369,0 2.32433,1.04064 2.32433,2.32434c0,1.28369 -0.60055,1.49223 -2.32433,1.3946c-1.78013,-0.10082 -2.32433,-0.1109 -2.32433,-1.3946z"></path><path stroke-width="0" stroke="none" fill="#d648ba" d="M242.73339,176.70098c1.20093,-0.45347 2.5421,0.15244 2.99557,1.35337c0.45347,1.20093 -0.15245,2.5421 -1.35338,2.99558c-1.20093,0.45347 -1.60817,-0.03469 -2.12578,-1.68182c-0.53452,-1.70097 -0.71735,-2.21365 0.48358,-2.66712z"></path><path stroke-width="0" stroke="none" fill="#d648ba" data-paper-data="{&quot;index&quot;:null}" d="M237.96421,179.3681c-0.51761,1.64712 -0.92486,2.13529 -2.12579,1.68182c-1.20093,-0.45347 -1.80684,-1.79465 -1.35337,-2.99558c0.45347,-1.20093 1.79464,-1.80685 2.99557,-1.35337c1.20093,0.45347 1.01811,0.96617 0.48359,2.66713z"></path><path stroke-width="0" stroke="none" fill="#d648ba" data-paper-data="{&quot;index&quot;:null}" d="M238.96564,181.78051c1.34682,1.08029 1.65383,1.63698 0.79528,2.59133c-0.85854,0.95435 -2.32818,1.03202 -3.28253,0.17347c-0.95435,-0.85854 -1.03202,-2.32818 -0.17347,-3.28253c0.85854,-0.95435 1.26987,-0.59788 2.66072,0.51773z"></path><path stroke-width="0" stroke="none" fill="#d648ba" data-paper-data="{&quot;index&quot;:null}" d="M243.97706,181.26278c0.85854,0.95435 0.78088,2.42399 -0.17347,3.28253c-0.95435,0.85854 -2.42399,0.78088 -3.28254,-0.17347c-0.85854,-0.95435 -0.55153,-1.51104 0.79528,-2.59133c1.39085,-1.1156 1.80217,-1.47207 2.66071,-0.51773z"></path></g></g></svg>