<svg viewBox="0,0,57.26667,57.26668" height="57.26668" width="57.26667" xmlns:xlink="http://www.w3.org/1999/xlink" xmlns="http://www.w3.org/2000/svg" version="1.1"><defs><radialGradient id="color-1" gradientUnits="userSpaceOnUse" r="28.63333" cy="180" cx="240.00003"><stop stop-color="#fae5bc" offset="0"></stop><stop stop-opacity="0" stop-color="#fae5bc" offset="1"></stop></radialGradient><linearGradient id="color-2" gradientUnits="userSpaceOnUse" y2="196.32003" x2="240.00003" y1="163.67998" x1="240.00003"><stop stop-color="#ffecad" offset="0"></stop><stop stop-color="#ffcd57" offset="1"></stop></linearGradient><linearGradient id="color-3" gradientUnits="userSpaceOnUse" y2="191.51197" x2="240.00003" y1="168.48803" x1="240.00003"><stop stop-color="#ffe078" offset="0"></stop><stop stop-color="#faaf00" offset="1"></stop></linearGradient><linearGradient id="color-4" gradientUnits="userSpaceOnUse" y2="174.66487" x2="240.00003" y1="163.67997" x1="240.00003"><stop stop-color="#ffffff" offset="0"></stop><stop stop-opacity="0" stop-color="#ffffff" offset="1"></stop></linearGradient></defs><g transform="translate(-211.36668,-151.36666)"><g style="mix-blend-mode: normal" stroke-dashoffset="0" stroke-dasharray="" stroke-miterlimit="10" stroke-linejoin="miter" fill-rule="nonzero" data-paper-data="{&quot;isPaintingLayer&quot;:true}"><path stroke-linecap="butt" stroke-width="0" stroke="none" fill="url(#color-1)" d="M211.36669,180c0,-15.81376 12.81958,-28.63334 28.63334,-28.63334c15.81375,0 28.63333,12.81958 28.63333,28.63334c0,15.81376 -12.81958,28.63334 -28.63333,28.63334c-15.81376,0 -28.63334,-12.81958 -28.63334,-28.63334z"></path><path stroke-linecap="butt" stroke-width="0" stroke="none" fill="url(#color-2)" d="M223.68001,180c0,-9.0133 7.30672,-16.32003 16.32003,-16.32003c9.0133,0 16.32002,7.30672 16.32002,16.32003c0,9.0133 -7.30672,16.32003 -16.32002,16.32003c-9.0133,0 -16.32003,-7.30672 -16.32003,-16.32003z"></path><path stroke-linecap="butt" stroke-width="0" stroke="none" fill="url(#color-3)" d="M228.48805,180c0,-6.35788 5.15409,-11.51197 11.51197,-11.51197c6.35788,0 11.51197,5.15409 11.51197,11.51197c0,6.35788 -5.15408,11.51197 -11.51197,11.51197c-6.35788,0 -11.51197,-5.15409 -11.51197,-11.51197z"></path><path stroke-linecap="butt" stroke-width="0" stroke="none" fill="url(#color-4)" d="M223.68,180c0,-9.0133 7.30672,-16.32003 16.32003,-16.32003c9.0133,0 16.32002,7.30672 16.32002,16.32003c0,0.57443 -0.02968,1.14193 -0.08758,1.70105c-0.26125,-0.29241 -31.32023,-0.9598 -32.54153,-1.09802c-0.00726,-0.20011 -0.01094,-0.40114 -0.01094,-0.60304z"></path><path stroke-linecap="round" stroke-width="4" stroke="#f19d00" fill="none" d="M240,175.8125v8.375"></path></g></g></svg>