<svg version="1.1" xmlns="http://www.w3.org/2000/svg" xmlns:xlink="http://www.w3.org/1999/xlink" width="32.64005" height="32.64006" viewBox="0,0,32.64005,32.64006"><defs><linearGradient x1="240" y1="163.67997" x2="240" y2="196.32003" gradientUnits="userSpaceOnUse" id="color-1"><stop offset="0" stop-color="#9ccbff"/><stop offset="1" stop-color="#4e96e6"/></linearGradient><linearGradient x1="240" y1="168.48803" x2="240" y2="191.51197" gradientUnits="userSpaceOnUse" id="color-2"><stop offset="0" stop-color="#5ba4f5"/><stop offset="1" stop-color="#3e8ade"/></linearGradient><linearGradient x1="240" y1="163.67997" x2="240" y2="174.66487" gradientUnits="userSpaceOnUse" id="color-3"><stop offset="0" stop-color="#ffffff"/><stop offset="1" stop-color="#ffffff" stop-opacity="0"/></linearGradient></defs><g transform="translate(-223.67997,-163.67997)"><g stroke="none" stroke-width="0" stroke-miterlimit="10"><path d="M223.67998,180c0,-9.0133 7.30672,-16.32003 16.32003,-16.32003c9.0133,0 16.32002,7.30672 16.32002,16.32003c0,9.0133 -7.30672,16.32003 -16.32002,16.32003c-9.0133,0 -16.32003,-7.30672 -16.32003,-16.32003z" fill="url(#color-1)"/><path d="M228.488,180c0,-6.35788 5.15409,-11.51197 11.51197,-11.51197c6.35788,0 11.51197,5.15409 11.51197,11.51197c0,6.35788 -5.15408,11.51197 -11.51197,11.51197c-6.35788,0 -11.51197,-5.15409 -11.51197,-11.51197z" fill="url(#color-2)"/><path d="M223.67998,180c0,-9.0133 7.30672,-16.32003 16.32003,-16.32003c9.0133,0 16.32002,7.30672 16.32002,16.32003c0,0.57443 -0.02968,1.14193 -0.08758,1.70105c-0.26125,-0.29241 -31.32023,-0.9598 -32.54153,-1.09802c-0.00726,-0.20011 -0.01094,-0.40114 -0.01094,-0.60304z" fill="url(#color-3)"/><path d="M234.78543,178.4655c0,0 1.74658,-0.6332 2.32117,-1.29255c0.57459,-0.65934 1.12636,-2.66353 1.12636,-2.66353c0,0 0.56618,2.02072 1.14361,2.68333c0.57169,0.65601 2.30392,1.27276 2.30392,1.27276c0,0 -1.74655,0.63316 -2.32114,1.2925c-0.57459,0.65935 -1.12639,2.66358 -1.12639,2.66358c0,0 -0.55177,-2.00419 -1.12636,-2.66353c-0.57459,-0.65935 -2.32117,-1.29255 -2.32117,-1.29255z" fill="#014fa9"/><path d="M240.1601,180.9174c0,0 1.28032,-0.4045 1.70153,-0.82569c0.4212,-0.4212 0.82567,-1.7015 0.82567,-1.7015c0,0 0.41503,1.29086 0.83832,1.71414c0.41907,0.41907 1.68887,0.81305 1.68887,0.81305c0,0 -1.28029,0.40447 -1.70149,0.82567c-0.4212,0.4212 -0.82569,1.70153 -0.82569,1.70153c0,0 -0.40447,-1.2803 -0.82567,-1.7015c-0.4212,-0.4212 -1.70153,-0.82569 -1.70153,-0.82569z" fill="#014fa9"/><path d="M237.9281,183.6144c0,0 0.95052,-0.3003 1.26321,-0.61299c0.31269,-0.31269 0.61298,-1.26319 0.61298,-1.26319c0,0 0.30812,0.95834 0.62237,1.27258c0.31111,0.31111 1.25383,0.60361 1.25383,0.60361c0,0 -0.9505,0.30028 -1.26319,0.61298c-0.3127,0.3127 -0.613,1.26321 -0.613,1.26321c0,0 -0.30028,-0.9505 -0.61298,-1.26319c-0.3127,-0.3127 -1.26321,-0.61299 -1.26321,-0.61299z" fill="#014fa9"/></g></g></svg>