<svg version="1.1" xmlns="http://www.w3.org/2000/svg" xmlns:xlink="http://www.w3.org/1999/xlink" width="32.64005" height="32.64006" viewBox="0,0,32.64005,32.64006"><defs><linearGradient x1="240.00002" y1="163.67997" x2="240.00002" y2="196.32003" gradientUnits="userSpaceOnUse" id="color-1"><stop offset="0" stop-color="#8eff95"/><stop offset="1" stop-color="#5bdc64"/></linearGradient><linearGradient x1="240.00002" y1="168.48803" x2="240.00002" y2="191.51197" gradientUnits="userSpaceOnUse" id="color-2"><stop offset="0" stop-color="#67e96f"/><stop offset="1" stop-color="#47ca4f"/></linearGradient><linearGradient x1="240.00002" y1="163.67997" x2="240.00002" y2="174.66487" gradientUnits="userSpaceOnUse" id="color-3"><stop offset="0" stop-color="#ffffff"/><stop offset="1" stop-color="#ffffff" stop-opacity="0"/></linearGradient></defs><g transform="translate(-223.67999,-163.67997)"><g stroke-miterlimit="10"><path d="M223.68,180c0,-9.0133 7.30672,-16.32003 16.32003,-16.32003c9.0133,0 16.32002,7.30672 16.32002,16.32003c0,9.0133 -7.30672,16.32003 -16.32002,16.32003c-9.0133,0 -16.32003,-7.30672 -16.32003,-16.32003z" fill="url(#color-1)" stroke="none" stroke-width="0" stroke-linecap="butt"/><path d="M228.48802,180c0,-6.35788 5.15409,-11.51197 11.51197,-11.51197c6.35788,0 11.51197,5.15409 11.51197,11.51197c0,6.35788 -5.15408,11.51197 -11.51197,11.51197c-6.35788,0 -11.51197,-5.15409 -11.51197,-11.51197z" fill="url(#color-2)" stroke="none" stroke-width="0" stroke-linecap="butt"/><path d="M223.68,180c0,-9.0133 7.30672,-16.32003 16.32003,-16.32003c9.0133,0 16.32002,7.30672 16.32002,16.32003c0,0.57443 -0.02968,1.14193 -0.08758,1.70105c-0.26125,-0.29241 -31.32023,-0.9598 -32.54153,-1.09802c-0.00726,-0.20011 -0.01094,-0.40114 -0.01094,-0.60304z" fill="url(#color-3)" stroke="none" stroke-width="0" stroke-linecap="butt"/><path d="M235.24462,180.16431c0,-1.38123 1.11971,-2.50094 2.50094,-2.50094c1.38123,0 2.50094,1.11971 2.50094,2.50094c0,1.38123 -1.11971,2.50094 -2.50094,2.50094c-1.38123,0 -2.50094,-1.11971 -2.50094,-2.50094z" fill="#178d1f" stroke="none" stroke-width="0" stroke-linecap="butt"/><path d="M239.75352,180.16431c0,-1.38123 1.11971,-2.50094 2.50094,-2.50094c1.38123,0 2.50094,1.11971 2.50094,2.50094c0,1.38123 -1.11971,2.50094 -2.50094,2.50094c-1.38123,0 -2.50094,-1.11971 -2.50094,-2.50094z" fill="#178d1f" stroke="none" stroke-width="0" stroke-linecap="butt"/><path d="M237.52913,176.43219c0,-1.38123 1.11971,-2.50094 2.50094,-2.50094c1.38123,0 2.50094,1.11971 2.50094,2.50094c0,1.38123 -1.11971,2.50094 -2.50094,2.50094c-1.38123,0 -2.50094,-1.11971 -2.50094,-2.50094z" fill="#178d1f" stroke="none" stroke-width="0" stroke-linecap="butt"/><path d="M240,181.27651c0,0 0.83296,2.8512 -1.59166,3.91724" fill="none" stroke="#178d1f" stroke-width="1.5" stroke-linecap="round"/></g></g></svg>