<svg version="1.1" xmlns="http://www.w3.org/2000/svg" xmlns:xlink="http://www.w3.org/1999/xlink" width="57.26667" height="57.26668" viewBox="0,0,57.26667,57.26668"><defs><radialGradient cx="240.00003" cy="180" r="28.63333" gradientUnits="userSpaceOnUse" id="color-1"><stop offset="0" stop-color="#ffc397"/><stop offset="1" stop-color="#ffc397" stop-opacity="0"/></radialGradient><linearGradient x1="240.00004" y1="163.67997" x2="240.00004" y2="196.32003" gradientUnits="userSpaceOnUse" id="color-2"><stop offset="0" stop-color="#ffceb6"/><stop offset="1" stop-color="#f9996b"/></linearGradient><linearGradient x1="239.99999" y1="168.48803" x2="239.99999" y2="191.51197" gradientUnits="userSpaceOnUse" id="color-3"><stop offset="0" stop-color="#ffad84"/><stop offset="1" stop-color="#e57c4b"/></linearGradient><linearGradient x1="240.00003" y1="163.67997" x2="240.00003" y2="174.66487" gradientUnits="userSpaceOnUse" id="color-4"><stop offset="0" stop-color="#ffffff"/><stop offset="1" stop-color="#ffffff" stop-opacity="0"/></linearGradient></defs><g transform="translate(-211.36669,-151.36666)"><g stroke="none" stroke-width="0" stroke-miterlimit="10"><path d="M211.3667,180c0,-15.81376 12.81958,-28.63334 28.63334,-28.63334c15.81375,0 28.63333,12.81958 28.63333,28.63334c0,15.81376 -12.81958,28.63334 -28.63333,28.63334c-15.81376,0 -28.63334,-12.81958 -28.63334,-28.63334z" fill="url(#color-1)"/><path d="M223.68001,180c0,-9.0133 7.30672,-16.32003 16.32003,-16.32003c9.0133,0 16.32002,7.30672 16.32002,16.32003c0,9.0133 -7.30672,16.32003 -16.32002,16.32003c-9.0133,0 -16.32003,-7.30672 -16.32003,-16.32003z" fill="url(#color-2)"/><path d="M228.48803,180c0,-6.35788 5.15409,-11.51197 11.51197,-11.51197c6.35788,0 11.51197,5.15409 11.51197,11.51197c0,6.35788 -5.15408,11.51197 -11.51197,11.51197c-6.35788,0 -11.51197,-5.15409 -11.51197,-11.51197z" fill="url(#color-3)"/><path d="M223.68001,180c0,-9.0133 7.30672,-16.32003 16.32003,-16.32003c9.0133,0 16.32002,7.30672 16.32002,16.32003c0,0.57443 -0.02968,1.14193 -0.08758,1.70105c-0.26125,-0.29241 -31.32023,-0.9598 -32.54153,-1.09802c-0.00726,-0.20011 -0.01094,-0.40114 -0.01094,-0.60304z" fill="url(#color-4)"/><path d="M236.17855,179.27345c0.52183,-2.05382 4.85489,-5.46238 5.1471,-5.38603c0.23797,0.06217 -0.17593,4.33406 -0.54689,6.92973c-0.39706,2.77831 -5.00725,0.05835 -4.60021,-1.5437z" fill="#d15e24"/><path d="M243.82151,180.72655c-0.52182,2.05382 -4.85489,5.46238 -5.1471,5.38603c-0.23797,-0.06217 0.17593,-4.33406 0.54689,-6.92973c0.39706,-2.77831 5.00725,-0.05835 4.60021,1.5437z" fill="#d15e24"/></g></g></svg>