<svg version="1.1" xmlns="http://www.w3.org/2000/svg" xmlns:xlink="http://www.w3.org/1999/xlink" width="32.64017" height="382.64006" viewBox="0,0,32.64017,382.64006"><defs><linearGradient x1="240.00004" y1="338.67998" x2="240.00004" y2="371.32003" gradientUnits="userSpaceOnUse" id="color-1"><stop offset="0" stop-color="#ffecad"/><stop offset="1" stop-color="#ffcd57"/></linearGradient><linearGradient x1="240.00004" y1="343.48803" x2="240.00004" y2="366.51197" gradientUnits="userSpaceOnUse" id="color-2"><stop offset="0" stop-color="#ffe078"/><stop offset="1" stop-color="#faaf00"/></linearGradient><linearGradient x1="240.00004" y1="338.67997" x2="240.00004" y2="349.66487" gradientUnits="userSpaceOnUse" id="color-3"><stop offset="0" stop-color="#ffffff"/><stop offset="1" stop-color="#ffffff" stop-opacity="0"/></linearGradient><linearGradient x1="240.00004" y1="303.67998" x2="240.00004" y2="336.32003" gradientUnits="userSpaceOnUse" id="color-4"><stop offset="0" stop-color="#fff0ad"/><stop offset="1" stop-color="#ffd457"/></linearGradient><linearGradient x1="240.00004" y1="308.48803" x2="240.00004" y2="331.51197" gradientUnits="userSpaceOnUse" id="color-5"><stop offset="0" stop-color="#ffe677"/><stop offset="1" stop-color="#f9bb00"/></linearGradient><linearGradient x1="240.00004" y1="303.67997" x2="240.00004" y2="314.66487" gradientUnits="userSpaceOnUse" id="color-6"><stop offset="0" stop-color="#ffffff"/><stop offset="1" stop-color="#ffffff" stop-opacity="0"/></linearGradient><linearGradient x1="240" y1="268.67997" x2="240" y2="301.32003" gradientUnits="userSpaceOnUse" id="color-7"><stop offset="0" stop-color="#8eff95"/><stop offset="1" stop-color="#5bdc64"/></linearGradient><linearGradient x1="240" y1="273.48803" x2="240" y2="296.51197" gradientUnits="userSpaceOnUse" id="color-8"><stop offset="0" stop-color="#67e96f"/><stop offset="1" stop-color="#47ca4f"/></linearGradient><linearGradient x1="240" y1="268.67997" x2="240" y2="279.66487" gradientUnits="userSpaceOnUse" id="color-9"><stop offset="0" stop-color="#ffffff"/><stop offset="1" stop-color="#ffffff" stop-opacity="0"/></linearGradient><linearGradient x1="239.99999" y1="233.67997" x2="239.99999" y2="266.32003" gradientUnits="userSpaceOnUse" id="color-10"><stop offset="0" stop-color="#8fffcd"/><stop offset="1" stop-color="#5adba1"/></linearGradient><linearGradient x1="239.99999" y1="238.48803" x2="239.99999" y2="261.51197" gradientUnits="userSpaceOnUse" id="color-11"><stop offset="0" stop-color="#66e8ae"/><stop offset="1" stop-color="#47c98f"/></linearGradient><linearGradient x1="239.99999" y1="233.67997" x2="239.99999" y2="244.66487" gradientUnits="userSpaceOnUse" id="color-12"><stop offset="0" stop-color="#ffffff"/><stop offset="1" stop-color="#ffffff" stop-opacity="0"/></linearGradient><linearGradient x1="239.99999" y1="198.67997" x2="239.99999" y2="231.32003" gradientUnits="userSpaceOnUse" id="color-13"><stop offset="0" stop-color="#9be8ff"/><stop offset="1" stop-color="#4fbce6"/></linearGradient><linearGradient x1="239.99999" y1="203.48803" x2="239.99999" y2="226.51197" gradientUnits="userSpaceOnUse" id="color-14"><stop offset="0" stop-color="#5ccbf6"/><stop offset="1" stop-color="#3eb1de"/></linearGradient><linearGradient x1="239.99999" y1="198.67997" x2="239.99999" y2="209.66487" gradientUnits="userSpaceOnUse" id="color-15"><stop offset="0" stop-color="#ffffff"/><stop offset="1" stop-color="#ffffff" stop-opacity="0"/></linearGradient></defs><g transform="translate(-223.67992,11.32003)"><g stroke-miterlimit="10"><path d="M223.68004,355c0,-9.0133 7.30672,-16.32003 16.32003,-16.32003c9.0133,0 16.32002,7.30672 16.32002,16.32003c0,9.0133 -7.30672,16.32003 -16.32002,16.32003c-9.0133,0 -16.32003,-7.30672 -16.32003,-16.32003z" fill="url(#color-1)" stroke="none" stroke-width="0" stroke-linecap="butt"/><path d="M228.48807,355c0,-6.35788 5.15409,-11.51197 11.51197,-11.51197c6.35788,0 11.51197,5.15409 11.51197,11.51197c0,6.35788 -5.15408,11.51197 -11.51197,11.51197c-6.35788,0 -11.51197,-5.15409 -11.51197,-11.51197z" fill="url(#color-2)" stroke="none" stroke-width="0" stroke-linecap="butt"/><path d="M223.68004,355c0,-9.0133 7.30672,-16.32003 16.32003,-16.32003c9.0133,0 16.32002,7.30672 16.32002,16.32003c0,0.57443 -0.02968,1.14193 -0.08758,1.70105c-0.26125,-0.29241 -31.32023,-0.9598 -32.54153,-1.09802c-0.00726,-0.20011 -0.01094,-0.40114 -0.01094,-0.60304z" fill="url(#color-3)" stroke="none" stroke-width="0" stroke-linecap="butt"/><path d="M240,350.8125v8.375" fill="none" stroke="#d88c00" stroke-width="4" stroke-linecap="round"/><path d="M223.68004,320c0,-9.0133 7.30672,-16.32003 16.32003,-16.32003c9.0133,0 16.32002,7.30672 16.32002,16.32003c0,9.0133 -7.30672,16.32003 -16.32002,16.32003c-9.0133,0 -16.32003,-7.30672 -16.32003,-16.32003z" fill="url(#color-4)" stroke="none" stroke-width="0" stroke-linecap="butt"/><path d="M228.48807,320c0,-6.35788 5.15409,-11.51197 11.51197,-11.51197c6.35788,0 11.51197,5.15409 11.51197,11.51197c0,6.35788 -5.15408,11.51197 -11.51197,11.51197c-6.35788,0 -11.51197,-5.15409 -11.51197,-11.51197z" fill="url(#color-5)" stroke="none" stroke-width="0" stroke-linecap="butt"/><path d="M223.68001,320c0,-9.0133 7.30672,-16.32003 16.32003,-16.32003c9.0133,0 16.32002,7.30672 16.32002,16.32003c0,0.57443 -0.02968,1.14193 -0.08758,1.70105c-0.26125,-0.29241 -31.32023,-0.9598 -32.54153,-1.09802c-0.00726,-0.20011 -0.01094,-0.40114 -0.01094,-0.60304z" fill="url(#color-6)" stroke="none" stroke-width="0" stroke-linecap="butt"/><path d="M234.80469,323.82883l5.26299,-8.85765l5.12773,8.85765z" fill="#c59400" stroke="none" stroke-width="0" stroke-linecap="butt"/><path d="M223.67998,285c0,-9.0133 7.30672,-16.32003 16.32003,-16.32003c9.0133,0 16.32002,7.30672 16.32002,16.32003c0,9.0133 -7.30672,16.32003 -16.32002,16.32003c-9.0133,0 -16.32003,-7.30672 -16.32003,-16.32003z" fill="url(#color-7)" stroke="none" stroke-width="0" stroke-linecap="butt"/><path d="M228.488,285c0,-6.35788 5.15409,-11.51197 11.51197,-11.51197c6.35788,0 11.51197,5.15409 11.51197,11.51197c0,6.35788 -5.15408,11.51197 -11.51197,11.51197c-6.35788,0 -11.51197,-5.15409 -11.51197,-11.51197z" fill="url(#color-8)" stroke="none" stroke-width="0" stroke-linecap="butt"/><path d="M223.67998,285c0,-9.0133 7.30672,-16.32003 16.32003,-16.32003c9.0133,0 16.32002,7.30672 16.32002,16.32003c0,0.57443 -0.02968,1.14193 -0.08758,1.70105c-0.26125,-0.29241 -31.32023,-0.9598 -32.54153,-1.09802c-0.00726,-0.20011 -0.01094,-0.40114 -0.01094,-0.60304z" fill="url(#color-9)" stroke="none" stroke-width="0" stroke-linecap="butt"/><path d="M235.24462,285.16431c0,-1.38123 1.11971,-2.50094 2.50094,-2.50094c1.38123,0 2.50094,1.11971 2.50094,2.50094c0,1.38123 -1.11971,2.50094 -2.50094,2.50094c-1.38123,0 -2.50094,-1.11971 -2.50094,-2.50094z" fill="#178d1f" stroke="none" stroke-width="0" stroke-linecap="butt"/><path d="M239.7535,285.16431c0,-1.38123 1.11971,-2.50094 2.50094,-2.50094c1.38123,0 2.50094,1.11971 2.50094,2.50094c0,1.38123 -1.11971,2.50094 -2.50094,2.50094c-1.38123,0 -2.50094,-1.11971 -2.50094,-2.50094z" fill="#178d1f" stroke="none" stroke-width="0" stroke-linecap="butt"/><path d="M237.52911,281.43219c0,-1.38123 1.11971,-2.50094 2.50094,-2.50094c1.38123,0 2.50094,1.11971 2.50094,2.50094c0,1.38123 -1.11971,2.50094 -2.50094,2.50094c-1.38123,0 -2.50094,-1.11971 -2.50094,-2.50094z" fill="#178d1f" stroke="none" stroke-width="0" stroke-linecap="butt"/><path d="M240,286.27651c0,0 0.83296,2.8512 -1.59166,3.91724" fill="none" stroke="#178d1f" stroke-width="1.5" stroke-linecap="round"/><path d="M223.67997,250c0,-9.0133 7.30672,-16.32003 16.32003,-16.32003c9.0133,0 16.32002,7.30672 16.32002,16.32003c0,9.0133 -7.30672,16.32003 -16.32002,16.32003c-9.0133,0 -16.32003,-7.30672 -16.32003,-16.32003z" fill="url(#color-10)" stroke="none" stroke-width="0" stroke-linecap="butt"/><path d="M228.48799,250c0,-6.35788 5.15409,-11.51197 11.51197,-11.51197c6.35788,0 11.51197,5.15409 11.51197,11.51197c0,6.35788 -5.15408,11.51197 -11.51197,11.51197c-6.35788,0 -11.51197,-5.15409 -11.51197,-11.51197z" fill="url(#color-11)" stroke="none" stroke-width="0" stroke-linecap="butt"/><path d="M223.67997,250c0,-9.0133 7.30672,-16.32003 16.32003,-16.32003c9.0133,0 16.32002,7.30672 16.32002,16.32003c0,0.57443 -0.02968,1.14193 -0.08758,1.70105c-0.26125,-0.29241 -31.32023,-0.9598 -32.54153,-1.09802c-0.00726,-0.20011 -0.01094,-0.40114 -0.01094,-0.60304z" fill="url(#color-12)" stroke="none" stroke-width="0" stroke-linecap="butt"/><path d="M234.79997,250c0,-2.87188 2.32812,-5.2 5.2,-5.2c2.87188,0 5.2,2.32812 5.2,5.2c0,2.87188 -2.32812,5.2 -5.2,5.2c-2.87188,0 -5.2,-2.32812 -5.2,-5.2z" fill="#209e65" stroke="none" stroke-width="0" stroke-linecap="butt"/><path d="M223.67997,215c0,-9.0133 7.30672,-16.32003 16.32003,-16.32003c9.0133,0 16.32002,7.30672 16.32002,16.32003c0,9.0133 -7.30672,16.32003 -16.32002,16.32003c-9.0133,0 -16.32003,-7.30672 -16.32003,-16.32003z" fill="url(#color-13)" stroke="none" stroke-width="0" stroke-linecap="butt"/><path d="M228.48799,215c0,-6.35788 5.15409,-11.51197 11.51197,-11.51197c6.35788,0 11.51197,5.15409 11.51197,11.51197c0,6.35788 -5.15408,11.51197 -11.51197,11.51197c-6.35788,0 -11.51197,-5.15409 -11.51197,-11.51197z" fill="url(#color-14)" stroke="none" stroke-width="0" stroke-linecap="butt"/><path d="M223.67997,215c0,-9.0133 7.30672,-16.32003 16.32003,-16.32003c9.0133,0 16.32002,7.30672 16.32002,16.32003c0,0.57443 -0.02968,1.14193 -0.08758,1.70105c-0.26125,-0.29241 -31.32023,-0.9598 -32.54153,-1.09802c-0.00726,-0.20011 -0.01094,-0.40114 -0.01094,-0.60304z" fill="url(#color-15)" stroke="none" stroke-width="0" stroke-linecap="butt"/><path d="M234.06025,215l5.9397,-5.9397l5.9397,5.9397l-5.9397,5.9397z" fill="#1181ad" stroke="none" stroke-width="0" stroke-linecap="butt"/><path d="M223.67997,180c0,-9.0133 7.30672,-16.32003 16.32003,-16.32003c9.0133,0 16.32002,7.30672 16.32002,16.32003c0,9.0133 -7.30672,16.32003 -16.32002,16.32003c-9.0133,0 -16.32003,-7.30672 -16.32003,-16.32003z" fill-opacity="0.38431" fill="#000000" stroke="none" stroke-width="0" stroke-linecap="butt"/><path d="M223.67996,145c0,-9.0133 7.30672,-16.32003 16.32003,-16.32003c9.0133,0 16.32002,7.30672 16.32002,16.32003c0,9.0133 -7.30672,16.32003 -16.32002,16.32003c-9.0133,0 -16.32003,-7.30672 -16.32003,-16.32003z" fill-opacity="0.38431" fill="#000000" stroke="none" stroke-width="0" stroke-linecap="butt"/><path d="M223.67995,110c0,-9.0133 7.30672,-16.32003 16.32003,-16.32003c9.0133,0 16.32002,7.30672 16.32002,16.32003c0,9.0133 -7.30672,16.32003 -16.32002,16.32003c-9.0133,0 -16.32003,-7.30672 -16.32003,-16.32003z" fill-opacity="0.38431" fill="#000000" stroke="none" stroke-width="0" stroke-linecap="butt"/><path d="M223.67995,75c0,-9.0133 7.30672,-16.32003 16.32003,-16.32003c9.0133,0 16.32002,7.30672 16.32002,16.32003c0,9.0133 -7.30672,16.32003 -16.32002,16.32003c-9.0133,0 -16.32003,-7.30672 -16.32003,-16.32003z" fill-opacity="0.38431" fill="#000000" stroke="none" stroke-width="0" stroke-linecap="butt"/><path d="M223.67992,40c0,-9.0133 7.30672,-16.32003 16.32003,-16.32003c9.0133,0 16.32002,7.30672 16.32002,16.32003c0,9.0133 -7.30672,16.32003 -16.32002,16.32003c-9.0133,0 -16.32003,-7.30672 -16.32003,-16.32003z" fill-opacity="0.38431" fill="#000000" stroke="none" stroke-width="0" stroke-linecap="butt"/><path d="M223.67992,5c0,-9.0133 7.30672,-16.32003 16.32003,-16.32003c9.0133,0 16.32002,7.30672 16.32002,16.32003c0,9.0133 -7.30672,16.32003 -16.32002,16.32003c-9.0133,0 -16.32003,-7.30672 -16.32003,-16.32003z" fill-opacity="0.38431" fill="#000000" stroke="none" stroke-width="0" stroke-linecap="butt"/></g></g></svg>