<svg version="1.1" xmlns="http://www.w3.org/2000/svg" xmlns:xlink="http://www.w3.org/1999/xlink" width="32.64006" height="32.64006" viewBox="0,0,32.64006,32.64006"><defs><linearGradient x1="240.00003" y1="163.67998" x2="240.00003" y2="196.32003" gradientUnits="userSpaceOnUse" id="color-1"><stop offset="0" stop-color="#fff0ad"/><stop offset="1" stop-color="#ffd457"/></linearGradient><linearGradient x1="240.00003" y1="168.48803" x2="240.00003" y2="191.51197" gradientUnits="userSpaceOnUse" id="color-2"><stop offset="0" stop-color="#ffe677"/><stop offset="1" stop-color="#f9bb00"/></linearGradient><linearGradient x1="240.00003" y1="163.67997" x2="240.00003" y2="174.66487" gradientUnits="userSpaceOnUse" id="color-3"><stop offset="0" stop-color="#ffffff"/><stop offset="1" stop-color="#ffffff" stop-opacity="0"/></linearGradient></defs><g transform="translate(-223.67999,-163.67997)"><g stroke="none" stroke-width="0" stroke-miterlimit="10"><path d="M223.68001,180c0,-9.0133 7.30672,-16.32003 16.32003,-16.32003c9.0133,0 16.32002,7.30672 16.32002,16.32003c0,9.0133 -7.30672,16.32003 -16.32002,16.32003c-9.0133,0 -16.32003,-7.30672 -16.32003,-16.32003z" fill="url(#color-1)"/><path d="M228.48805,180c0,-6.35788 5.15409,-11.51197 11.51197,-11.51197c6.35788,0 11.51197,5.15409 11.51197,11.51197c0,6.35788 -5.15408,11.51197 -11.51197,11.51197c-6.35788,0 -11.51197,-5.15409 -11.51197,-11.51197z" fill="url(#color-2)"/><path d="M223.68,180c0,-9.0133 7.30672,-16.32003 16.32003,-16.32003c9.0133,0 16.32002,7.30672 16.32002,16.32003c0,0.57443 -0.02968,1.14193 -0.08758,1.70105c-0.26125,-0.29241 -31.32023,-0.9598 -32.54153,-1.09802c-0.00726,-0.20011 -0.01094,-0.40114 -0.01094,-0.60304z" fill="url(#color-3)"/><path d="M234.80467,183.82883l5.26299,-8.85765l5.12773,8.85765z" fill="#c59400"/></g></g></svg>